# xmcd
#
# Track frame offsets: 
#        150
#        13197
#        28187
#        48492
#        61267
#        73032
#        87705
#        105972
#        118435
#        131835
#
# Disc length: 1965 seconds
#
# Revision: 2
# Processed by: cddbd v1.4PL0 Copyright (c) Steve Scherf et al.
# Submitted via: ExactAudioCopy v0.90a11
#
DISCID=9307ab0a
DTITLE=Rosanne Cash - Seven Year Ache
DYEAR=1900
DGENRE=
TTITLE0=Rainin'
TTITLE1=Seven Year Ache
TTITLE2=Blue Moon With Heartache
TTITLE3=What Kinda Girl?
TTITLE4=You Don't Have Very Far To Go
TTITLE5=My Baby Thinks He's A Train
TTITLE6=Only Human
TTITLE7=Where Will The Words Come From?
TTITLE8=Hometown Blues
TTITLE9=I Can't Resist
EXTD=Produced by Rodney Crowell\nDigitally mastered - analog recording
EXTT0=
EXTT1=
EXTT2=
EXTT3=
EXTT4=
EXTT5=
EXTT6=
EXTT7=
EXTT8=
EXTT9=
PLAYORDER=
